<?xml version="1.0" encoding="utf-8"?>
<!-- Generator: Adobe Illustrator 16.0.0, SVG Export Plug-In . SVG Version: 6.00 Build 0)  -->
<!DOCTYPE svg PUBLIC "-//W3C//DTD SVG 1.1//EN" "http://www.w3.org/Graphics/SVG/1.1/DTD/svg11.dtd">
<svg version="1.1" id="Layer_1" xmlns="http://www.w3.org/2000/svg" xmlns:xlink="http://www.w3.org/1999/xlink" x="0px" y="0px"
	 width="96px" height="96px" viewBox="0 0 96 96" enable-background="new 0 0 96 96" xml:space="preserve">
<path style="fill:#ffffff" d="M92.801,17.417c-0.004-0.062-0.008-0.124-0.018-0.185c-0.006-0.033-0.01-0.063-0.02-0.097
	c-0.01-0.055-0.025-0.111-0.041-0.164c-0.01-0.031-0.02-0.064-0.029-0.096c-0.021-0.055-0.045-0.108-0.07-0.164
	c-0.014-0.025-0.021-0.052-0.035-0.076c-0.041-0.076-0.084-0.151-0.137-0.223c-0.004-0.007-0.01-0.011-0.016-0.017
	c-0.045-0.064-0.094-0.127-0.15-0.186c-0.02-0.02-0.039-0.04-0.063-0.059c-0.043-0.042-0.084-0.081-0.133-0.117
	c-0.023-0.022-0.051-0.043-0.078-0.062c-0.023-0.018-0.045-0.036-0.07-0.054c-0.025-0.016-0.049-0.026-0.074-0.041
	c-0.027-0.017-0.053-0.033-0.084-0.049c-0.057-0.028-0.115-0.057-0.174-0.08c-0.018-0.007-0.035-0.019-0.051-0.023L52.572,1.172
	c-0.434-0.163-0.914-0.163-1.348,0L12.238,15.727c-0.016,0.005-0.033,0.017-0.051,0.023c-0.059,0.023-0.117,0.052-0.176,0.08
	c-0.027,0.016-0.057,0.032-0.082,0.049c-0.025,0.015-0.051,0.025-0.076,0.041c-0.021,0.018-0.045,0.036-0.068,0.054
	c-0.027,0.019-0.053,0.039-0.08,0.062c-0.045,0.036-0.088,0.075-0.133,0.117c-0.02,0.019-0.043,0.039-0.061,0.059
	c-0.055,0.059-0.105,0.121-0.152,0.186c-0.006,0.006-0.01,0.01-0.014,0.017c-0.051,0.071-0.098,0.146-0.135,0.223
	c-0.014,0.024-0.025,0.051-0.037,0.076c-0.025,0.056-0.047,0.109-0.068,0.165c-0.012,0.03-0.021,0.063-0.031,0.095
	c-0.018,0.053-0.029,0.107-0.041,0.164c-0.008,0.033-0.016,0.063-0.02,0.097c-0.01,0.061-0.014,0.123-0.018,0.185
	c-0.002,0.021-0.008,0.043-0.008,0.063c0,0.007,0,0.015,0,0.021c0,0.009-0.002,0.019-0.002,0.027v36.199l-0.014-0.086
	c-0.32-1.966-2.049-3.37-4.057-3.262c-1.988,0.108-3.57,1.699-3.676,3.686l-0.027,0.563c-0.049,0.686-0.008,1.5,0.129,2.488
	c0.008,0.079,0.023,0.157,0.037,0.236l0.039,0.203c0.059,0.345,0.15,0.854,0.34,1.426l0.035,0.129
	c0.064,0.214,0.127,0.432,0.203,0.651C4.02,59.83,4.045,59.895,4.07,59.96l0.293,0.718c0.016,0.036,0.031,0.071,0.045,0.106
	c0.629,1.421,1.41,2.735,2.309,3.881c1.055,1.37,2.203,2.601,3.389,3.644c1.344,1.195,2.75,2.284,4.182,3.238
	c1.652,1.095,3.189,2.008,4.689,2.786c1.717,0.9,3.406,1.695,4.979,2.351c1.875,0.807,3.721,1.472,5.164,1.977
	c1.955,0.657,3.557,1.152,4.996,1.544c0.836,0.239,1.664,0.459,2.42,0.642c0.811,0.213,1.609,0.396,2.359,0.563
	c1.406,0.323,2.867,0.623,4.309,0.881c1.158,0.218,2.238,0.388,3.219,0.54l1.953,0.271v7.955c0,1.575,0.947,2.995,2.402,3.598
	c0.482,0.199,0.988,0.297,1.49,0.297c1.016,0,2.01-0.396,2.756-1.142l16.77-16.77c0.732-0.73,1.143-1.721,1.143-2.754
	c0-0.114-0.023-0.227-0.033-0.339l18.744-8.89c0.705-0.303,1.16-0.998,1.16-1.767V41.538c0-0.004,0-0.008,0-0.013V17.529
	c0-0.009,0-0.019,0-0.027c0-0.007,0-0.015,0-0.021C92.807,17.46,92.801,17.438,92.801,17.417z M51.898,5.029l12.652,4.724
	l-13.988,5.705L37.85,10.274L51.898,5.029z M33.133,48.525V28.552l15.438,6.673v19.597L33.133,48.525z M48.375,58.668v6.251
	l-1.049,0.073c-0.83,0.047-1.746,0.098-2.771,0.123c-1.141,0.037-2.311,0.057-3.709,0.034c-0.641-0.006-1.297-0.016-2.035-0.049
	c-0.67-0.018-1.355-0.052-2.102-0.101c-1.057-0.06-2.225-0.161-3.576-0.307V52.665L48.375,58.668z M36.184,25.478l14.379-5.863
	l15.754,6.424l-14.418,6.223L36.184,25.478z M32.525,12.263l12.936,5.273L31.23,23.34l-13.16-5.681L32.525,12.263z M14.838,20.656
	l14.445,6.335v20.02l-14.445-6.088V20.656z M14.838,45.06l14.445,6.089v13.017c-0.469-0.078-0.941-0.163-1.42-0.259
	c-1.357-0.251-2.771-0.582-4.334-1.017c-1.223-0.336-2.525-0.776-3.975-1.345c-1.131-0.445-2.24-0.981-3.414-1.645
	c-0.439-0.245-0.871-0.521-1.303-0.826V45.06z M51.898,91.056V80.96v-1.302c-0.357-0.042-1.037-0.121-1.996-0.233
	c-0.779-0.104-1.725-0.23-2.807-0.374c-1.057-0.166-2.25-0.346-3.543-0.588c-1.293-0.233-2.689-0.512-4.154-0.85
	c-0.736-0.163-1.488-0.337-2.252-0.535c-0.766-0.188-1.545-0.395-2.332-0.618c-1.58-0.432-3.197-0.944-4.826-1.491
	c-1.621-0.566-3.258-1.171-4.863-1.861c-1.609-0.671-3.189-1.428-4.713-2.225c-1.525-0.792-2.979-1.678-4.344-2.582
	c-1.365-0.909-2.617-1.898-3.742-2.902c-1.131-0.993-2.094-2.069-2.895-3.111c-0.814-1.036-1.404-2.107-1.83-3.077
	c-0.102-0.246-0.199-0.483-0.293-0.714c-0.08-0.233-0.143-0.466-0.207-0.685c-0.15-0.43-0.199-0.853-0.273-1.219
	c-0.1-0.743-0.131-1.326-0.098-1.722c0.02-0.393,0.029-0.603,0.029-0.603s0.033,0.207,0.096,0.594
	c0.049,0.384,0.199,0.941,0.441,1.607c0.143,0.331,0.266,0.7,0.488,1.07c0.105,0.187,0.203,0.382,0.32,0.578
	c0.131,0.188,0.264,0.386,0.4,0.586c0.574,0.789,1.291,1.621,2.211,2.389c0.914,0.771,1.953,1.536,3.152,2.206
	c1.193,0.675,2.488,1.315,3.883,1.868c1.396,0.547,2.855,1.061,4.379,1.479c1.518,0.422,3.076,0.798,4.654,1.09
	c1.57,0.313,3.162,0.541,4.725,0.738c1.57,0.18,3.111,0.33,4.613,0.413c0.746,0.052,1.484,0.086,2.207,0.106
	c0.721,0.033,1.428,0.044,2.117,0.051c1.371,0.02,2.668,0.003,3.865-0.038c1.195-0.027,2.291-0.096,3.26-0.148
	c0.945-0.075,1.77-0.138,2.447-0.191c0.859-0.08,1.496-0.142,1.879-0.178v-0.878V57.515L68.67,74.285L51.898,91.056z M69.539,69.276
	L57.834,57.57l11.705-4.94V69.276z M69.539,48.453l-15.715,6.556V35.822l15.715-6.485V48.453z M71.268,23.899l-15.605-6.363
	l14.215-5.794l15.85,5.917L71.268,23.899z M88.959,62.024l-15.57,7.518V51.004l15.57-6.77V62.024z M88.959,40.055l-15.57,6.771
	v-19.15l15.57-6.721V40.055z"/>
</svg>
