<?xml version="1.0" encoding="utf-8"?>
<!-- Generator: Adobe Illustrator 16.0.0, SVG Export Plug-In . SVG Version: 6.00 Build 0)  -->
<!DOCTYPE svg PUBLIC "-//W3C//DTD SVG 1.1//EN" "http://www.w3.org/Graphics/SVG/1.1/DTD/svg11.dtd">
<svg version="1.1" id="Layer_1" xmlns="http://www.w3.org/2000/svg" xmlns:xlink="http://www.w3.org/1999/xlink" x="0px" y="0px"
	 width="96px" height="96px" viewBox="0 0 96 96" enable-background="new 0 0 96 96" xml:space="preserve">
<path style="fill:#ffffff" d="M93.188,22.962C92.374,22.516,49.954,1.345,49.005,0.871C48.695,0.716,48.278,0.608,48,0.608s-0.696,0.107-1.005,0.262
	C46.046,1.345,3.626,22.516,2.812,22.962s-1.606,1.07-1.606,2.461s0,44.219,0,45.083s0.18,1.633,1.38,2.233
	s44.184,22.368,44.184,22.368s0.604,0.284,1.231,0.284s1.231-0.284,1.231-0.284S92.215,73.34,93.415,72.74s1.38-1.369,1.38-2.233
	s0-43.692,0-45.083S94.003,23.408,93.188,22.962z M48.108,6.01l16.738,8.393l-16.694,8.146l-16.696-8.214L48.108,6.01z
	 M22.751,76.92L6.267,68.678V50.754l16.484,8.063V76.92z M22.751,53.235L6.267,45.182V30.147l16.484,8.172V53.235z M9.574,25.312
	l16.359-8.179l16.162,8.146l-16.706,7.962L9.574,25.312z M45.458,88.272l-17.69-8.846V61.368l17.69,8.743V88.272z M45.458,64.279
	l-17.69-8.643V40.778l17.69,8.745V64.279z M48.172,44.67L31.07,36.09l17.092-7.955l16.277,8.406L48.172,44.67z M68.233,79.427
	l-17.69,8.846V70.111l17.69-8.743V79.427z M68.233,55.637l-17.69,8.643V49.523l17.69-8.745V55.637z M53.488,25.306l17.111-8.155
	l16.188,8.117l-16.755,8.377L53.488,25.306z M89.733,68.678L73.249,76.92V58.817l16.484-8.063V68.678z M89.733,45.182l-16.484,8.054
	V38.319l16.484-8.172V45.182z"/>
</svg>
