<?xml version="1.0" encoding="utf-8"?>
<!-- Generator: Adobe Illustrator 17.0.0, SVG Export Plug-In . SVG Version: 6.00 Build 0)  -->
<!DOCTYPE svg PUBLIC "-//W3C//DTD SVG 1.1//EN" "http://www.w3.org/Graphics/SVG/1.1/DTD/svg11.dtd">
<svg version="1.1" id="Layer_1" xmlns="http://www.w3.org/2000/svg" xmlns:xlink="http://www.w3.org/1999/xlink" x="0px" y="0px"
	 width="26px" height="26px" viewBox="0 0 26 26" enable-background="new 0 0 26 26" xml:space="preserve">
<path style="fill:#CC4C66" d="M25.939,5c0,3.927-1.712,6.78-1.784,6.899c-0.145,0.237-0.396,0.367-0.655,0.367c-0.136,0-0.273-0.036-0.397-0.111
	c-0.362-0.22-0.478-0.691-0.259-1.053c0.016-0.026,1.561-2.623,1.561-6.102c0-1.984-1.29-3.424-3.068-3.424
	c-1.692,0-3.068,1.376-3.068,3.069c0,0.721,0.349,2.553,0.483,3.198c0.087,0.415-0.18,0.821-0.595,0.908
	c-0.415,0.085-0.821-0.18-0.907-0.594c-0.053-0.253-0.517-2.502-0.517-3.512c0-2.538,2.065-4.603,4.604-4.603
	C23.96,0.042,25.939,2.173,25.939,5z M21.467,6.207c0.305,2.549,0.747,7.516,0.239,8.022L10.56,25.376
	c-0.685,0.686-1.798,0.686-2.484-0.001l-7.453-7.452c-0.686-0.685-0.686-1.798,0-2.484L11.77,4.293
	c0.177-0.177,2.105-0.185,4.273-0.072C16.031,4.364,16,4.499,16,4.645c0,0.556,0.123,1.418,0.252,2.176
	c-0.227,0.337-0.36,0.742-0.36,1.179c0,1.164,0.944,2.108,2.108,2.108S20.108,9.164,20.108,8c0-0.717-0.359-1.349-0.906-1.729
	C19.09,5.604,19,4.96,19,4.645c0-0.068,0.014-0.131,0.02-0.198c0.267,0.028,0.53,0.057,0.779,0.088
	C21.272,4.716,21.287,4.713,21.467,6.207z M15.526,14.549c-0.173-0.481-0.461-1.058-1.086-1.722l0.846-0.847l-0.942-0.941
	l-0.913,0.914c-1.222-0.837-2.482-0.769-3.337,0.086c-0.932,0.932-0.712,2.115-0.028,3.49c0.47,0.952,0.556,1.5,0.191,1.865
	c-0.375,0.375-0.98,0.212-1.529-0.336c-0.624-0.624-0.99-1.395-1.172-2.02l-1.414,0.838c0.164,0.566,0.606,1.373,1.23,2.037
	L6.45,18.836l0.941,0.942l0.991-0.99c1.307,0.922,2.625,0.798,3.48-0.057c0.875-0.877,0.952-1.857,0.202-3.414
	c-0.52-1.116-0.645-1.664-0.337-1.971c0.27-0.27,0.75-0.347,1.375,0.278c0.693,0.693,0.923,1.366,1.048,1.722L15.526,14.549z"/>
</svg>
