<?xml version="1.0" encoding="utf-8"?>
<!-- Generator: Adobe Illustrator 16.0.4, SVG Export Plug-In . SVG Version: 6.00 Build 0)  -->
<!DOCTYPE svg PUBLIC "-//W3C//DTD SVG 1.1//EN" "http://www.w3.org/Graphics/SVG/1.1/DTD/svg11.dtd">
<svg version="1.1" id="Layer_1" xmlns="http://www.w3.org/2000/svg" xmlns:xlink="http://www.w3.org/1999/xlink" x="0px" y="0px"
	 width="50px" height="50px" viewBox="0 0 50 50" enable-background="new 0 0 50 50" xml:space="preserve">
<path style="fill:#ffffff" d="M33.225,25.623v2.754c0,0.938-0.758,1.693-1.693,1.693H18.469c-0.935,0-1.693-0.756-1.693-1.693v-2.754
	c0-0.934,0.758-1.693,1.693-1.693h13.062C32.466,23.93,33.225,24.689,33.225,25.623z M43.75,11v28c0,1.105-0.896,2-2,2H8.25
	c-1.104,0-2-0.895-2-2V11c0-1.104,0.896-2,2-2h33.5C42.855,9,43.75,9.896,43.75,11z M35.754,13.084c0,0.871,0.707,1.578,1.579,1.578
	s1.579-0.707,1.579-1.578c0-0.873-0.707-1.58-1.579-1.58S35.754,12.211,35.754,13.084z M31.296,13.084
	c0,0.871,0.707,1.578,1.579,1.578s1.579-0.707,1.579-1.578c0-0.873-0.707-1.58-1.579-1.58S31.296,12.211,31.296,13.084z
	 M26.838,13.084c0,0.871,0.707,1.578,1.579,1.578s1.579-0.707,1.579-1.578c0-0.873-0.707-1.58-1.579-1.58
	S26.838,12.211,26.838,13.084z M39.75,16.666h-29.5V37h29.5V16.666z"/>
</svg>
