<?xml version="1.0" encoding="utf-8"?>
<!-- Generator: Adobe Illustrator 17.0.0, SVG Export Plug-In . SVG Version: 6.00 Build 0)  -->
<!DOCTYPE svg PUBLIC "-//W3C//DTD SVG 1.1//EN" "http://www.w3.org/Graphics/SVG/1.1/DTD/svg11.dtd">
<svg version="1.1" id="Capa_1" xmlns="http://www.w3.org/2000/svg" xmlns:xlink="http://www.w3.org/1999/xlink" x="0px" y="0px"
	 width="64px" height="64px" viewBox="0 0 64 64" enable-background="new 0 0 64 64" xml:space="preserve">
<g>
	<path style="fill:#ffffff" d="M58.009,13.89l-11-10C47,3.881,46.988,3.88,46.979,3.872c-0.14-0.121-0.295-0.213-0.459-0.274
		c-0.02-0.007-0.041-0.012-0.061-0.019c-0.136-0.044-0.278-0.068-0.419-0.072C46.026,3.506,46.014,3.5,46,3.5H5.083h-1.5V5v40.917
		c0,0.016,0.007,0.029,0.008,0.045c0.005,0.144,0.029,0.287,0.075,0.425c0.007,0.02,0.011,0.041,0.019,0.061
		c0.062,0.165,0.157,0.32,0.28,0.459c0.008,0.009,0.01,0.02,0.017,0.029l10.167,11c0.127,0.137,0.277,0.24,0.435,0.319v0.163h0.667
		H58.5V14.5h-0.107C58.313,14.275,58.198,14.062,58.009,13.89z M17.583,17.5H55.5v37.917H17.583V17.5z M16.705,14.5L14.1,11.896
		h37.255L54.22,14.5H16.705z M45.42,6.5l1.765,1.604H10.309L8.705,6.5H45.42z M6.583,45.33V8.621l2.256,2.256v1.019v14.675
		l3.446,2.762v-15.01l2.298,2.298v37.364L6.583,45.33z"/>
	<path style="fill:#ffffff" d="M38.067,24.156c-1.004-1.004-2.631-1.004-3.634,0l-7.875,7.874c-1.004,1.004-0.667,1.817,0.753,1.817h3.799v7.71
		c0,1.419,1.151,2.57,2.57,2.57h5.14c1.419,0,2.57-1.151,2.57-2.57v-7.71h3.799c1.419,0,1.756-0.814,0.753-1.817L38.067,24.156z"/>
	<path style="fill:#ffffff" d="M44.5,46.833H27.167c-1.104,0-2,0.896-2,2s0.896,2,2,2H44.5c1.104,0,2-0.896,2-2S45.604,46.833,44.5,46.833z"/>
</g>
</svg>
