<?xml version="1.0" encoding="utf-8"?>
<!-- Generator: Adobe Illustrator 16.0.4, SVG Export Plug-In . SVG Version: 6.00 Build 0)  -->
<!DOCTYPE svg PUBLIC "-//W3C//DTD SVG 1.1//EN" "http://www.w3.org/Graphics/SVG/1.1/DTD/svg11.dtd">
<svg version="1.1" id="Layer_1" xmlns="http://www.w3.org/2000/svg" xmlns:xlink="http://www.w3.org/1999/xlink" x="0px" y="0px"
	 width="50px" height="50px" viewBox="0 0 50 50" enable-background="new 0 0 50 50" xml:space="preserve">
<path style="fill:#ffffff" d="M41.75,9H8.25c-1.104,0-2,0.896-2,2v28c0,1.105,0.896,2,2,2h33.5c1.104,0,2-0.895,2-2V11C43.75,9.896,42.855,9,41.75,9z
	 M37.334,11.504c0.872,0,1.579,0.707,1.579,1.58c0,0.871-0.707,1.578-1.579,1.578s-1.579-0.707-1.579-1.578
	C35.754,12.211,36.461,11.504,37.334,11.504z M32.876,11.504c0.872,0,1.579,0.707,1.579,1.58c0,0.871-0.707,1.578-1.579,1.578
	s-1.579-0.707-1.579-1.578C31.296,12.211,32.003,11.504,32.876,11.504z M28.417,11.504c0.872,0,1.579,0.707,1.579,1.58
	c0,0.871-0.707,1.578-1.579,1.578s-1.579-0.707-1.579-1.578C26.838,12.211,27.545,11.504,28.417,11.504z M39.75,37h-29.5V16.666
	h29.5V37z"/>
</svg>
