<?xml version="1.0" encoding="utf-8"?>
<!-- Generator: Adobe Illustrator 16.0.4, SVG Export Plug-In . SVG Version: 6.00 Build 0)  -->
<!DOCTYPE svg PUBLIC "-//W3C//DTD SVG 1.1//EN" "http://www.w3.org/Graphics/SVG/1.1/DTD/svg11.dtd">
<svg version="1.1" id="Layer_1" xmlns="http://www.w3.org/2000/svg" xmlns:xlink="http://www.w3.org/1999/xlink" x="0px" y="0px"
	 width="50px" height="50px" viewBox="0 0 50 50" enable-background="new 0 0 50 50" xml:space="preserve">
<path style="fill:#ffffff" d="M14.745,23.35c0-0.933,0.755-1.687,1.687-1.687s1.687,0.754,1.687,1.687c0,0.931-0.755,1.687-1.687,1.687
	S14.745,24.28,14.745,23.35z M22.273,25.036c0.933,0,1.687-0.756,1.687-1.687c0-0.933-0.754-1.687-1.687-1.687
	c-0.931,0-1.686,0.754-1.686,1.687C20.589,24.28,21.344,25.036,22.273,25.036z M28.118,25.036c0.932,0,1.687-0.756,1.687-1.687
	c0-0.933-0.755-1.687-1.687-1.687c-0.933,0-1.687,0.754-1.687,1.687C26.434,24.28,27.188,25.036,28.118,25.036z M43.439,30.243
	h-6.573v3.653H23.008l-9.537,9.537v-9.537H6.559V12.858H10.1V6.566h33.342v23.677H43.439z M33.866,15.858H9.557v15.038h6.912v5.295
	l5.297-5.295h12.101V15.858z M40.439,9.566H13.1v3.292h23.768v14.385h3.574V9.566H40.439z"/>
</svg>
