<?xml version="1.0" encoding="utf-8"?>
<!-- Generator: Adobe Illustrator 16.0.0, SVG Export Plug-In . SVG Version: 6.00 Build 0)  -->
<!DOCTYPE svg PUBLIC "-//W3C//DTD SVG 1.1//EN" "http://www.w3.org/Graphics/SVG/1.1/DTD/svg11.dtd">
<svg version="1.1" id="Layer_1" xmlns="http://www.w3.org/2000/svg" xmlns:xlink="http://www.w3.org/1999/xlink" x="0px" y="0px"
	 width="96px" height="96px" viewBox="0 0 96 96" enable-background="new 0 0 96 96" xml:space="preserve">
<path style="fill:#ffffff" d="M91.176,43.574L74.57,60.18V46.811c0-1.214-0.984-2.198-2.197-2.198h-0.994c4.176-3.734,6.825-9.146,6.825-15.177
	c0-11.24-9.144-20.384-20.383-20.384c-7.687,0-14.389,4.279-17.86,10.578C36.488,13.331,29.787,9.052,22.1,9.052
	c-11.239,0-20.383,9.144-20.383,20.384c0,6.086,2.695,11.543,6.938,15.281c-0.903,0.272-1.564,1.102-1.564,2.094v36.258
	c0,1.214,0.984,2.197,2.198,2.197h63.084c1.213,0,2.197-0.983,2.197-2.197V69.699l16.605,16.605c0.858,0.858,2.25,0.858,3.107,0
	v-42.73C93.425,42.716,92.034,42.716,91.176,43.574z M22.1,41.325c-6.556,0-11.89-5.334-11.89-11.89
	c0-6.557,5.334-11.89,11.89-11.89c6.557,0,11.891,5.333,11.891,11.89C33.99,35.991,28.656,41.325,22.1,41.325z M57.82,41.325
	c-6.556,0-11.89-5.334-11.89-11.89c0-6.557,5.334-11.89,11.89-11.89c6.557,0,11.891,5.333,11.891,11.89
	C69.711,35.991,64.377,41.325,57.82,41.325z"/>
</svg>
